<svg xmlns="http://www.w3.org/2000/svg" width="24" height="24" viewBox="0 0 24 24">
  <g id="Icon_ionic-logo-instagram" data-name="Icon ionic-logo-instagram" transform="translate(-4.5 -4.5)">
    <path id="Path_36401" data-name="Path 36401" d="M21.5,6.5a5.015,5.015,0,0,1,5,5v10a5.015,5.015,0,0,1-5,5h-10a5.015,5.015,0,0,1-5-5v-10a5.015,5.015,0,0,1,5-5h10m0-2h-10a7.021,7.021,0,0,0-7,7v10a7.021,7.021,0,0,0,7,7h10a7.021,7.021,0,0,0,7-7v-10a7.021,7.021,0,0,0-7-7Z" fill="currentColor"/>
    <path id="Path_36402" data-name="Path 36402" d="M25.125,12a1.5,1.5,0,1,1,1.5-1.5A1.5,1.5,0,0,1,25.125,12Z" transform="translate(-2.125 -0.5)" fill="currentColor"/>
    <path id="Path_36403" data-name="Path 36403" d="M17.25,13.25a4,4,0,1,1-4,4,4,4,0,0,1,4-4m0-2a6,6,0,1,0,6,6,6,6,0,0,0-6-6Z" transform="translate(-0.75 -0.75)" fill="currentColor"/>
  </g>
</svg>
