<?xml version="1.0" encoding="UTF-8"?>
<svg id="Layer_2" data-name="Layer 2" xmlns="http://www.w3.org/2000/svg" viewBox="0 0 25 25">
  <defs>
    <style>
      .cls-1 {
        fill: #231f20;
      }

      .cls-2 {
        fill: #fff;
      }
    </style>
  </defs>
  <g id="Layer_1-2" data-name="Layer 1">
    <g>
      <rect class="cls-1" width="25" height="25"/>
      <path class="cls-2" d="M12.61,25c-.39,0-.74-.2-.94-.54l-1.2-2.02c-2.46-4.15-4.78-8.07-5.57-9.67-.58-1.18-.87-2.44-.87-3.76,0-4.73,3.84-8.57,8.57-8.57s8.57,3.84,8.57,8.57c0,1.31-.29,2.57-.86,3.75,0,.01-.01.03-.02.04-.81,1.61-3.11,5.51-5.55,9.63l-1.2,2.02c-.2.33-.55.54-.94.54Z"/>
      <path class="cls-1" d="M12.61,12.91c-2.31,0-4.19-1.88-4.19-4.19s1.88-4.19,4.19-4.19,4.19,1.88,4.19,4.19-1.88,4.19-4.19,4.19Z"/>
    </g>
  </g>
</svg>