<svg xmlns="http://www.w3.org/2000/svg" width="25.556" height="21.078" viewBox="0 0 25.556 21.078">
  <g id="Group_4939" data-name="Group 4939" transform="translate(-1032 -257.923)">
    <g id="Group_4486" data-name="Group 4486" transform="translate(-1208 1903.895) rotate(-90)">
      <g id="Group_266" data-name="Group 266" transform="translate(1624.894 2240)">
        <g id="Rectangle_112" data-name="Rectangle 112" transform="translate(0)" fill="none" stroke="#bd8065" stroke-width="2">
          <rect width="18" height="18" stroke="none"/>
          <rect x="1" y="1" width="16" height="16" fill="none"/>
        </g>
      </g>
    </g>
    <g id="Union_1" data-name="Union 1" transform="translate(5107.364 259.337)">
      <path d="M -4064.63623046875 15.55629444122314 L -4064.98974609375 15.20274448394775 L -4071.353759765625 8.838654518127441 L -4071.707275390625 8.485124588012695 L -4071.353759765625 8.131574630737305 L -4069.93994140625 6.717565059661865 L -4069.58642578125 6.363965034484863 L -4069.23291015625 6.717535018920898 L -4064.64697265625 11.30333518981934 L -4052.989990234375 -0.3535451292991638 L -4052.636474609375 -0.7071251273155212 L -4052.282958984375 -0.3535251319408417 L -4050.869140625 1.060484886169434 L -4050.515625 1.414024829864502 L -4050.869140625 1.767554879188538 L -4062.525146484375 13.42474746704102 L -4062.514892578125 13.43500518798828 L -4062.86865234375 13.78873443603516 L -4064.28271484375 15.20275497436523 L -4064.63623046875 15.55629444122314 Z" stroke="none"/>
      <path d="M -4064.63623046875 14.84919452667236 L -4063.22216796875 13.4351749420166 L -4063.232421875 13.42493534088135 L -4051.22265625 1.414014935493469 L -4052.636474609375 4.879150310443947e-06 L -4064.64697265625 12.01043510437012 L -4069.58642578125 7.071094989776611 L -4071.000244140625 8.485104560852051 L -4064.63623046875 14.84919452667236 M -4064.63623046875 16.26340484619141 L -4072.414306640625 8.48514461517334 L -4069.58642578125 5.656845092773438 L -4064.64697265625 10.59622478485107 L -4052.636474609375 -1.414255142211914 L -4049.80859375 1.414024829864502 L -4061.81787109375 13.42455101013184 L -4061.8076171875 13.43483448028564 L -4064.63623046875 16.26340484619141 Z" stroke="none" fill="#fff"/>
    </g>
  </g>
</svg>
