<svg xmlns="http://www.w3.org/2000/svg" width="150.557" height="53.116" viewBox="0 0 150.557 53.116">
  <g id="Group_4912" data-name="Group 4912" transform="translate(-49.987 -49.588)" style="mix-blend-mode: luminosity;isolation: isolate">
    <g id="Group_4909" data-name="Group 4909" transform="translate(49.987 49.588)">
      <path id="Path_36387" data-name="Path 36387" d="M49.987,83.705,67.055,71.3H54.013l6.52-20.074L67.055,71.3h21.1L71.086,83.705,77.6,103.782,49.987,83.705h21.1" transform="translate(-49.987 -51.012)" fill="#f4d800"/>
      <path id="Path_36388" data-name="Path 36388" d="M49.987,301.3" transform="translate(-49.987 -268.609)" fill="#ffec00"/>
      <path id="Path_36389" data-name="Path 36389" d="M184.139,69.874H170.952l6.6-20.286,6.587,20.286h21.33L188.214,82.412,194.8,102.7,177.552,90.161,160.294,102.7l6.592-20.292Z" transform="translate(-145.967 -49.588)" fill="#1c1b1a"/>
    </g>
    <g id="Group_4911" data-name="Group 4911" transform="translate(119.518 69.876)">
      <g id="Group_4910" data-name="Group 4910" transform="translate(0 0)">
        <path id="Path_36390" data-name="Path 36390" d="M585.325,207.779H589.7q2.427,0,3.254,1.488a10.163,10.163,0,0,1,.825,4.72v.835a11.668,11.668,0,0,1-.27,2.622,3.6,3.6,0,0,1-3.914,2.887h-4.271Zm2.626,10.628h1.269a1.487,1.487,0,0,0,1.529-.948,10.364,10.364,0,0,0,.382-3.4,13.338,13.338,0,0,0-.295-3.3,1.407,1.407,0,0,0-1.528-1.054h-1.356Z" transform="translate(-585.325 -207.521)" fill="#1c1b1a"/>
        <path id="Path_36391" data-name="Path 36391" d="M673.171,220.33V207.779h6.835V209.7H675.8V212.8h3.878v1.923H675.8v3.687h4.347v1.924Z" transform="translate(-661.761 -207.521)" fill="#1c1b1a"/>
        <path id="Path_36392" data-name="Path 36392" d="M738.979,207.779H741.7l1.945,9.135,2.222-9.135h2.588l-3.317,12.551h-3.071Z" transform="translate(-719.022 -207.521)" fill="#1c1b1a"/>
        <path id="Path_36393" data-name="Path 36393" d="M828.851,214.859v.363a2.155,2.155,0,0,0,.606,1.706,2.19,2.19,0,0,0,1.493.527,2.534,2.534,0,0,0,1.632-.485,1.861,1.861,0,0,0,.607-1.544,2.329,2.329,0,0,0-1.4-1.951q-1.405-.823-2.757-1.606a3.222,3.222,0,0,1-1.46-2.672,3.169,3.169,0,0,1,1.014-2.517,3.915,3.915,0,0,1,2.667-.885,3.483,3.483,0,0,1,2.6.888,3.844,3.844,0,0,1,.867,2.779h-1.663a2.888,2.888,0,0,0-.417-1.7,1.76,1.76,0,0,0-1.513-.573,2.129,2.129,0,0,0-1.374.443,1.674,1.674,0,0,0-.556,1.4,2.324,2.324,0,0,0,1.4,1.935c.939.549,1.856,1.086,2.761,1.605a3.384,3.384,0,0,1,1.457,2.794,3.13,3.13,0,0,1-1.086,2.665,4.494,4.494,0,0,1-2.8.822,3.677,3.677,0,0,1-2.766-.927,4.322,4.322,0,0,1-.894-3.062Z" transform="translate(-795.847 -205.794)" fill="#1c1b1a"/>
        <path id="Path_36394" data-name="Path 36394" d="M910.307,207.779v1.394H907v11.144h-1.6V209.173H902.1v-1.394Z" transform="translate(-860.953 -207.521)" fill="#1c1b1a"/>
        <path id="Path_36395" data-name="Path 36395" d="M979.776,207.779h2.033l4.08,12.538-1.777,0-.919-2.98h-4.838l-.934,2.988-1.615,0Zm.969,1.47-2.013,6.69h4.022Z" transform="translate(-925.089 -207.521)" fill="#1c1b1a"/>
        <path id="Path_36396" data-name="Path 36396" d="M1074.263,214.56v5.757h-1.6V207.779h4.321a2.747,2.747,0,0,1,2.274.906,3.435,3.435,0,0,1,.728,2.224,3,3,0,0,1-.6,1.9,2.633,2.633,0,0,1-1.691.966,2.392,2.392,0,0,1,1.606.832,4.611,4.611,0,0,1,.441,2.428,15.447,15.447,0,0,0,.133,1.624,9.737,9.737,0,0,0,.31,1.656h-1.664a4.647,4.647,0,0,1-.361-1.334,21.489,21.489,0,0,1-.132-2.828,1.309,1.309,0,0,0-.589-1.291,2.784,2.784,0,0,0-1.3-.3Zm0-1.393h2.395a1.473,1.473,0,0,0,1.257-.6,2.456,2.456,0,0,0,.441-1.487,2.24,2.24,0,0,0-.407-1.345,1.463,1.463,0,0,0-1.273-.564h-2.412Z" transform="translate(-1009.364 -207.521)" fill="#1c1b1a"/>
        <path id="Path_36397" data-name="Path 36397" d="M1152.658,214.859v.363a2.159,2.159,0,0,0,.607,1.706,2.2,2.2,0,0,0,1.5.527,2.526,2.526,0,0,0,1.629-.485,1.858,1.858,0,0,0,.608-1.544,2.331,2.331,0,0,0-1.405-1.951c-.938-.548-1.854-1.084-2.758-1.606a3.224,3.224,0,0,1-1.458-2.672,3.153,3.153,0,0,1,1.017-2.517,3.9,3.9,0,0,1,2.662-.885,3.488,3.488,0,0,1,2.6.888,3.856,3.856,0,0,1,.865,2.779h-1.665a2.9,2.9,0,0,0-.414-1.7,1.76,1.76,0,0,0-1.514-.573,2.124,2.124,0,0,0-1.371.443,1.672,1.672,0,0,0-.557,1.4,2.323,2.323,0,0,0,1.4,1.935q1.406.823,2.758,1.605a3.374,3.374,0,0,1,1.458,2.794,3.136,3.136,0,0,1-1.082,2.665,4.507,4.507,0,0,1-2.8.822,3.683,3.683,0,0,1-2.767-.927,4.333,4.333,0,0,1-.893-3.062Z" transform="translate(-1077.599 -205.794)" fill="#1c1b1a"/>
      </g>
    </g>
  </g>
</svg>
